<?xml version="1.0" encoding="UTF-8" standalone="no"?>
<svg width="428px" height="447px" viewBox="0 0 428 447" version="1.1" xmlns="http://www.w3.org/2000/svg" xmlns:xlink="http://www.w3.org/1999/xlink">
    <!-- Generator: Sketch 3.8.3 (29802) - http://www.bohemiancoding.com/sketch -->
    <title>reports_sitemap</title>
    <desc>Created with Sketch.</desc>
    <defs>
        <rect id="path-1" x="163" y="14" width="100" height="75"></rect>
        <mask id="mask-2" maskContentUnits="userSpaceOnUse" maskUnits="objectBoundingBox" x="0" y="0" width="100" height="75" fill="white">
            <use xlink:href="#path-1"></use>
        </mask>
        <rect id="path-3" x="188" y="0" width="50" height="15"></rect>
        <mask id="mask-4" maskContentUnits="userSpaceOnUse" maskUnits="objectBoundingBox" x="0" y="0" width="50" height="15" fill="white">
            <use xlink:href="#path-3"></use>
        </mask>
        <rect id="path-5" x="0" y="124" width="100" height="75"></rect>
        <mask id="mask-6" maskContentUnits="userSpaceOnUse" maskUnits="objectBoundingBox" x="0" y="0" width="100" height="75" fill="white">
            <use xlink:href="#path-5"></use>
        </mask>
        <rect id="path-7" x="25" y="110" width="50" height="15"></rect>
        <mask id="mask-8" maskContentUnits="userSpaceOnUse" maskUnits="objectBoundingBox" x="0" y="0" width="50" height="15" fill="white">
            <use xlink:href="#path-7"></use>
        </mask>
        <rect id="path-9" x="164" y="246" width="100" height="75"></rect>
        <mask id="mask-10" maskContentUnits="userSpaceOnUse" maskUnits="objectBoundingBox" x="0" y="0" width="100" height="75" fill="white">
            <use xlink:href="#path-9"></use>
        </mask>
        <rect id="path-11" x="189" y="232" width="50" height="15"></rect>
        <mask id="mask-12" maskContentUnits="userSpaceOnUse" maskUnits="objectBoundingBox" x="0" y="0" width="50" height="15" fill="white">
            <use xlink:href="#path-11"></use>
        </mask>
        <rect id="path-13" x="164" y="372" width="100" height="75"></rect>
        <mask id="mask-14" maskContentUnits="userSpaceOnUse" maskUnits="objectBoundingBox" x="0" y="0" width="100" height="75" fill="white">
            <use xlink:href="#path-13"></use>
        </mask>
        <rect id="path-15" x="189" y="358" width="50" height="15"></rect>
        <mask id="mask-16" maskContentUnits="userSpaceOnUse" maskUnits="objectBoundingBox" x="0" y="0" width="50" height="15" fill="white">
            <use xlink:href="#path-15"></use>
        </mask>
        <rect id="path-17" x="328" y="126" width="100" height="75"></rect>
        <mask id="mask-18" maskContentUnits="userSpaceOnUse" maskUnits="objectBoundingBox" x="0" y="0" width="100" height="75" fill="white">
            <use xlink:href="#path-17"></use>
        </mask>
        <rect id="path-19" x="353" y="112" width="50" height="15"></rect>
        <mask id="mask-20" maskContentUnits="userSpaceOnUse" maskUnits="objectBoundingBox" x="0" y="0" width="50" height="15" fill="white">
            <use xlink:href="#path-19"></use>
        </mask>
    </defs>
    <g id="object_oriented" stroke="none" stroke-width="1" fill="none" fill-rule="evenodd">
        <g id="reports_sitemap">
            <text id="Standards-Overview" font-family="HelveticaNeue, Helvetica Neue" font-size="14" font-weight="normal" fill="#4A4A4A">
                <tspan x="180.092" y="46">Standards </tspan>
                <tspan x="183.221" y="62">Overview</tspan>
            </text>
            <use id="Rectangle-43" stroke="#979797" mask="url(#mask-2)" stroke-width="2" xlink:href="#path-1"></use>
            <use id="Rectangle-43" stroke="#979797" mask="url(#mask-4)" stroke-width="2" transform="translate(213.000000, 7.500000) scale(1, -1) translate(-213.000000, -7.500000) " xlink:href="#path-3"></use>
            <text id="0.0" font-family="HelveticaNeue, Helvetica Neue" font-size="11" font-weight="normal" fill="#4A4A4A">
                <tspan x="205" y="12">0.0</tspan>
            </text>
            <path d="M214,155 L327.5,155" id="Line" stroke="#979797" stroke-linecap="square" fill="#9B9B9B"></path>
            <path id="Line-decoration-1" d="M327.5,155 L316.7,152 L316.7,158 L327.5,155 Z" stroke="#979797" stroke-linecap="square" fill="#9B9B9B"></path>
            <path d="M100,155 L213.5,155" id="Line" stroke="#979797" stroke-linecap="square" fill="#9B9B9B" transform="translate(157.000000, 155.000000) scale(-1, 1) translate(-157.000000, -155.000000) "></path>
            <path id="Line-decoration-1" d="M213.5,155 L202.7,152 L202.7,158 L213.5,155 Z" stroke="#979797" stroke-linecap="square" fill="#9B9B9B"></path>
            <path d="M214,89.5 L214,154.5" id="Line" stroke="#979797" stroke-linecap="square"></path>
            <text id="Standards-by-Domain" font-family="HelveticaNeue, Helvetica Neue" font-size="14" font-weight="normal" fill="#4A4A4A">
                <tspan x="7.495" y="156">Standards by </tspan>
                <tspan x="25.128" y="172">Domain</tspan>
            </text>
            <use id="Rectangle-43" stroke="#979797" mask="url(#mask-6)" stroke-width="2" xlink:href="#path-5"></use>
            <use id="Rectangle-43" stroke="#979797" mask="url(#mask-8)" stroke-width="2" transform="translate(50.000000, 117.500000) scale(1, -1) translate(-50.000000, -117.500000) " xlink:href="#path-7"></use>
            <text id="1.0" font-family="HelveticaNeue, Helvetica Neue" font-size="11" font-weight="normal" fill="#4A4A4A">
                <tspan x="42" y="122">1.0</tspan>
            </text>
            <text id="Standard-Performance" font-family="HelveticaNeue, Helvetica Neue" font-size="14" font-weight="normal" fill="#4A4A4A">
                <tspan x="184.592" y="278">Standard </tspan>
                <tspan x="173.063" y="294">Performance</tspan>
            </text>
            <use id="Rectangle-43" stroke="#979797" mask="url(#mask-10)" stroke-width="2" xlink:href="#path-9"></use>
            <use id="Rectangle-43" stroke="#979797" mask="url(#mask-12)" stroke-width="2" transform="translate(214.000000, 239.500000) scale(1, -1) translate(-214.000000, -239.500000) " xlink:href="#path-11"></use>
            <text id="3.0" font-family="HelveticaNeue, Helvetica Neue" font-size="11" font-weight="normal" fill="#4A4A4A">
                <tspan x="206" y="244">3.0</tspan>
            </text>
            <text id="Problems" font-family="HelveticaNeue, Helvetica Neue" font-size="14" font-weight="normal" fill="#4A4A4A">
                <tspan x="183.556" y="414">Problems</tspan>
            </text>
            <use id="Rectangle-43" stroke="#979797" mask="url(#mask-14)" stroke-width="2" xlink:href="#path-13"></use>
            <use id="Rectangle-43" stroke="#979797" mask="url(#mask-16)" stroke-width="2" transform="translate(214.000000, 365.500000) scale(1, -1) translate(-214.000000, -365.500000) " xlink:href="#path-15"></use>
            <text id="4.0" font-family="HelveticaNeue, Helvetica Neue" font-size="11" font-weight="normal" fill="#4A4A4A">
                <tspan x="206" y="370">4.0</tspan>
            </text>
            <text id="Standards-Interventi" font-family="HelveticaNeue, Helvetica Neue" font-size="14" font-weight="normal" fill="#4A4A4A">
                <tspan x="345.092" y="158">Standards </tspan>
                <tspan x="340.43" y="174">Intervention</tspan>
            </text>
            <use id="Rectangle-43" stroke="#979797" mask="url(#mask-18)" stroke-width="2" xlink:href="#path-17"></use>
            <use id="Rectangle-43" stroke="#979797" mask="url(#mask-20)" stroke-width="2" transform="translate(378.000000, 119.500000) scale(1, -1) translate(-378.000000, -119.500000) " xlink:href="#path-19"></use>
            <text id="2.0" font-family="HelveticaNeue, Helvetica Neue" font-size="11" font-weight="normal" fill="#4A4A4A">
                <tspan x="370" y="124">2.0</tspan>
            </text>
            <g id="Group-3" transform="translate(47.000000, 199.000000)" stroke="#979797" stroke-linecap="square">
                <path d="M2,77 L114.5,77" id="Line" fill="#9B9B9B"></path>
                <path id="Line-decoration-1" d="M114.5,77 L103.7,74 L103.7,80 L114.5,77 Z" fill="#9B9B9B"></path>
                <path d="M1.5,0.5 L1.5,203.5" id="Line"></path>
            </g>
            <path d="M49,403 L161.5,403" id="Line" stroke="#979797" stroke-linecap="square" fill="#9B9B9B"></path>
            <path id="Line-decoration-1" d="M161.5,403 L150.7,400 L150.7,406 L161.5,403 Z" stroke="#979797" stroke-linecap="square" fill="#9B9B9B"></path>
            <g id="Group-3" transform="translate(322.500000, 303.000000) scale(-1, 1) translate(-322.500000, -303.000000) translate(265.000000, 201.000000)" stroke="#979797" stroke-linecap="square">
                <path d="M2,77 L114.5,77" id="Line" fill="#9B9B9B"></path>
                <path id="Line-decoration-1" d="M114.5,77 L103.7,74 L103.7,80 L114.5,77 Z" fill="#9B9B9B"></path>
                <path d="M1.5,0.5 L1.5,203.5" id="Line"></path>
            </g>
            <path d="M265,405 L377.5,405" id="Line" stroke="#979797" stroke-linecap="square" fill="#9B9B9B" transform="translate(321.500000, 405.000000) scale(-1, 1) translate(-321.500000, -405.000000) "></path>
            <path id="Line-decoration-1" d="M377.5,405 L366.7,402 L366.7,408 L377.5,405 Z" stroke="#979797" stroke-linecap="square" fill="#9B9B9B"></path>
            <path d="M215,358 L215,321.5" id="Line" stroke="#979797" stroke-linecap="square" fill="#9B9B9B" transform="translate(215.000000, 339.500000) scale(-1, -1) translate(-215.000000, -339.500000) "></path>
            <path id="Line-decoration-1" d="M215,321.5 L212,332.3 L218,332.3 L215,321.5 Z" stroke="#979797" stroke-linecap="square" fill="#9B9B9B"></path>
        </g>
    </g>
</svg>