<?xml version="1.0" encoding="UTF-8" standalone="no"?>
<svg width="445px" height="155px" viewBox="0 0 445 155" version="1.1" xmlns="http://www.w3.org/2000/svg" xmlns:xlink="http://www.w3.org/1999/xlink" style="background: #9B9B9B;">
    <!-- Generator: Sketch 3.8.3 (29802) - http://www.bohemiancoding.com/sketch -->
    <title>reports_student_filters</title>
    <desc>Created with Sketch.</desc>
    <defs>
        <rect id="path-1" x="0" y="0" width="200" height="40" rx="4"></rect>
        <mask id="mask-2" maskContentUnits="userSpaceOnUse" maskUnits="objectBoundingBox" x="0" y="0" width="200" height="40" fill="white">
            <use xlink:href="#path-1"></use>
        </mask>
        <path d="M171.778175,5 L3.99986884,5 C1.78747944,5 0,6.78935228 0,8.99663018 L0,83.0033698 C0,85.2110538 1.79080228,87 3.99986884,87 L194.000131,87 C196.212521,87 198,85.2106477 198,83.0033698 L198,8.99663018 C198,6.78894624 196.209198,5 194.000131,5 L181.778175,5 L176.778175,-4.97379915e-14 L171.778175,5 Z" id="path-3"></path>
        <mask id="mask-4" maskContentUnits="userSpaceOnUse" maskUnits="objectBoundingBox" x="0" y="0" width="198" height="87" fill="white">
            <use xlink:href="#path-3"></use>
        </mask>
        <rect id="path-5" x="0" y="0" width="200" height="40" rx="4"></rect>
        <mask id="mask-6" maskContentUnits="userSpaceOnUse" maskUnits="objectBoundingBox" x="0" y="0" width="200" height="40" fill="white">
            <use xlink:href="#path-5"></use>
        </mask>
        <path d="M171.778175,5 L3.99986884,5 C1.78747944,5 0,6.78935228 0,8.99663018 L0,83.0033698 C0,85.2110538 1.79080228,87 3.99986884,87 L194.000131,87 C196.212521,87 198,85.2106477 198,83.0033698 L198,8.99663018 C198,6.78894624 196.209198,5 194.000131,5 L181.778175,5 L176.778175,-4.97379915e-14 L171.778175,5 Z" id="path-7"></path>
        <mask id="mask-8" maskContentUnits="userSpaceOnUse" maskUnits="objectBoundingBox" x="0" y="0" width="198" height="87" fill="white">
            <use xlink:href="#path-7"></use>
        </mask>
    </defs>
    <g id="object_oriented" stroke="none" stroke-width="1" fill="none" fill-rule="evenodd">
        <g id="reports_student_filters">
            <g id="Group-2" transform="translate(11.000000, 12.000000)">
                <g id="Button-Dropdown-Stroke">
                    <g>
                        <use id="Rectangle-1" stroke="#E1E1E1" mask="url(#mask-2)" stroke-width="2" fill="#FFFFFF" xlink:href="#path-1"></use>
                        <polygon id="Triangle-1-Copy" fill="#94989E" points="173 19 182 19 177.5 23"></polygon>
                        <text id="Date-Range" font-family="Roboto-Medium, Roboto" font-size="14" font-weight="400" fill="#1D7BE3">
                            <tspan x="64.0395508" y="25">Date Range</tspan>
                        </text>
                    </g>
                </g>
                <g id="Group" transform="translate(1.000000, 44.000000)">
                    <g id="Dropdown">
                        <g>
                            <use id="Combined-Shape" stroke="#E1E1E1" mask="url(#mask-4)" stroke-width="2" fill="#FFFFFF" xlink:href="#path-3"></use>
                            <text id="Fall-Semester-2015" opacity="0.6" font-family="Roboto-Regular, Roboto" font-size="14" font-weight="normal" line-spacing="27" fill="#000000">
                                <tspan x="23" y="31">Fall Semester 2015</tspan>
                                <tspan x="23" y="58">Winter Semester 2016</tspan>
                            </text>
                        </g>
                    </g>
                </g>
            </g>
            <g id="Group-2" transform="translate(236.000000, 12.000000)">
                <g id="Button-Dropdown-Stroke">
                    <g>
                        <use id="Rectangle-1" stroke="#E1E1E1" mask="url(#mask-6)" stroke-width="2" fill="#FFFFFF" xlink:href="#path-5"></use>
                        <polygon id="Triangle-1-Copy" fill="#94989E" points="173 19 182 19 177.5 23"></polygon>
                        <text id="Performance" font-family="Roboto-Medium, Roboto" font-size="14" font-weight="400" fill="#1D7BE3">
                            <tspan x="59.1894531" y="25">Performance</tspan>
                        </text>
                    </g>
                </g>
                <g id="Group" transform="translate(1.000000, 44.000000)">
                    <g id="Dropdown">
                        <g>
                            <use id="Combined-Shape" stroke="#E1E1E1" mask="url(#mask-8)" stroke-width="2" fill="#FFFFFF" xlink:href="#path-7"></use>
                            <text id="A" opacity="0.6" font-family="Roboto-Regular, Roboto" font-size="14" font-weight="normal" line-spacing="27" fill="#000000">
                                <tspan x="23" y="31">A</tspan>
                                <tspan x="23" y="58">B</tspan>
                            </text>
                        </g>
                    </g>
                </g>
            </g>
        </g>
    </g>
</svg>